<svg width="68" height="30" viewBox="0 0 68 30" fill="none" xmlns="http://www.w3.org/2000/svg">
<path fill-rule="evenodd" clip-rule="evenodd" d="M15.1463 14.6321C17.1343 14.6321 18.7459 13.0205 18.7459 11.0325C18.7459 9.04452 17.1343 7.43292 15.1463 7.43292C13.1583 7.43292 11.5468 9.04452 11.5468 11.0325C11.5468 13.0205 13.1583 14.6321 15.1463 14.6321ZM15.1489 15.6624C17.5739 15.6624 19.8921 16.6604 21.5588 18.422C21.7357 18.6137 21.8331 18.8655 21.8313 19.1264V21.8313C21.8313 22.3993 21.3708 22.8597 20.8028 22.8597H9.48984C8.92184 22.8597 8.46138 22.3993 8.46138 21.8313V19.1264C8.46098 18.8648 8.56027 18.6129 8.73906 18.422C10.4057 16.6604 12.7239 15.6624 15.1489 15.6624ZM9.48984 19.1213V21.8313H20.8028V19.1213C19.33 17.5705 17.2851 16.6924 15.1463 16.6924C13.0076 16.6924 10.9626 17.5705 9.48984 19.1213ZM17.7175 11.0325C17.7175 9.61252 16.5663 8.46138 15.1463 8.46138C13.7263 8.46138 12.5752 9.61252 12.5752 11.0325C12.5752 12.4525 13.7263 13.6037 15.1463 13.6037C16.5663 13.6037 17.7175 12.4525 17.7175 11.0325Z" fill="#47A6D7"/>
<rect x="0.420732" y="0.420732" width="29.1585" height="29.1585" rx="2.10366" stroke="#47A6D7" stroke-width="0.841463"/>
<rect x="38" width="30" height="30" rx="2.52439" fill="#47A6D7"/>
<path fill-rule="evenodd" clip-rule="evenodd" d="M53.1461 14.6321C55.1341 14.6321 56.7457 13.0205 56.7457 11.0325C56.7457 9.04452 55.1341 7.43292 53.1461 7.43292C51.1581 7.43292 49.5466 9.04452 49.5466 11.0325C49.5466 13.0205 51.1581 14.6321 53.1461 14.6321ZM53.1487 15.6624C55.5737 15.6624 57.8919 16.6604 59.5586 18.422C59.7355 18.6137 59.8329 18.8655 59.8311 19.1264V21.8313C59.8311 22.3993 59.3706 22.8597 58.8026 22.8597H47.4896C46.9216 22.8597 46.4612 22.3993 46.4612 21.8313V19.1264C46.4608 18.8648 46.5601 18.6129 46.7389 18.422C48.4055 16.6604 50.7237 15.6624 53.1487 15.6624ZM47.4896 19.1213V21.8313H58.8026V19.1213C57.3298 17.5705 55.2849 16.6924 53.1461 16.6924C51.0074 16.6924 48.9624 17.5705 47.4896 19.1213ZM55.7173 11.0325C55.7173 9.61252 54.5661 8.46138 53.1461 8.46138C51.7261 8.46138 50.575 9.61252 50.575 11.0325C50.575 12.4525 51.7261 13.6037 53.1461 13.6037C54.5661 13.6037 55.7173 12.4525 55.7173 11.0325Z" fill="white"/>
</svg>
